<svg width="36" height="36" viewBox="0 0 36 36" fill="none" xmlns="http://www.w3.org/2000/svg">
<path d="M17.8319 0C7.89698 0 0 7.89698 0 17.8319C0 27.7668 7.89698 35.6638 17.8319 35.6638C27.7668 35.6638 35.6638 27.7668 35.6638 17.8319C35.6638 7.89698 27.7668 0 17.8319 0ZM17.8319 33.1164C9.42543 33.1164 2.54741 26.2384 2.54741 17.8319C2.54741 9.42543 9.42543 2.54741 17.8319 2.54741C26.2384 2.54741 33.1164 9.42543 33.1164 17.8319C33.1164 26.2384 26.2384 33.1164 17.8319 33.1164Z" fill="#262626"/>
<path d="M24.71 26.7478L17.832 19.8698L10.9539 26.7478L8.91602 24.7099L15.794 17.8319L8.91602 10.9539L10.9539 8.91595L17.832 15.794L24.71 8.91595L26.7479 10.9539L19.8699 17.8319L26.7479 24.7099L24.71 26.7478Z" fill="#262626"/>
</svg>
