<svg width="23" height="37" viewBox="0 0 23 37" fill="none" xmlns="http://www.w3.org/2000/svg">
<path d="M11.3056 22.2C8.30714 22.2 5.43152 21.0305 3.31132 18.9489C1.19112 16.8672 0 14.0439 0 11.1C0 8.1561 1.19112 5.33277 3.31132 3.25111C5.43152 1.16946 8.30714 0 11.3056 0C14.304 0 17.1796 1.16946 19.2998 3.25111C21.42 5.33277 22.6111 8.1561 22.6111 11.1C22.6111 14.0439 21.42 16.8672 19.2998 18.9489C17.1796 21.0305 14.304 22.2 11.3056 22.2ZM11.3056 16.65C12.8048 16.65 14.2426 16.0653 15.3027 15.0244C16.3628 13.9836 16.9583 12.572 16.9583 11.1C16.9583 9.62805 16.3628 8.21638 15.3027 7.17556C14.2426 6.13473 12.8048 5.55 11.3056 5.55C9.80635 5.55 8.36854 6.13473 7.30844 7.17556C6.24834 8.21638 5.65278 9.62805 5.65278 11.1C5.65278 12.572 6.24834 13.9836 7.30844 15.0244C8.36854 16.0653 9.80635 16.65 11.3056 16.65V16.65ZM18.8426 21.7375V37L11.3056 29.6L3.76852 37V21.7375C5.97711 23.2571 8.60864 24.0723 11.3056 24.0723C14.0025 24.0723 16.634 23.2571 18.8426 21.7375V21.7375Z" fill="black"/>
</svg>
