<svg width="22" height="37" viewBox="0 0 22 37" fill="none" xmlns="http://www.w3.org/2000/svg">
<path d="M11 22.2C8.08262 22.2 5.28473 21.0305 3.22183 18.9489C1.15893 16.8672 0 14.0439 0 11.1C0 8.1561 1.15893 5.33277 3.22183 3.25111C5.28473 1.16946 8.08262 0 11 0C13.9174 0 16.7153 1.16946 18.7782 3.25111C20.8411 5.33277 22 8.1561 22 11.1C22 14.0439 20.8411 16.8672 18.7782 18.9489C16.7153 21.0305 13.9174 22.2 11 22.2ZM11 16.65C12.4587 16.65 13.8576 16.0653 14.8891 15.0244C15.9205 13.9836 16.5 12.572 16.5 11.1C16.5 9.62805 15.9205 8.21638 14.8891 7.17556C13.8576 6.13473 12.4587 5.55 11 5.55C9.54131 5.55 8.14236 6.13473 7.11091 7.17556C6.07946 8.21638 5.5 9.62805 5.5 11.1C5.5 12.572 6.07946 13.9836 7.11091 15.0244C8.14236 16.0653 9.54131 16.65 11 16.65V16.65ZM18.3333 21.7375V37L11 29.6L3.66667 37V21.7375C5.81557 23.2571 8.37598 24.0723 11 24.0723C13.624 24.0723 16.1844 23.2571 18.3333 21.7375V21.7375Z" fill="black" fill-opacity="0.5"/>
</svg>
